PathFileType	4	(X/Y/Z)	path1_04_0-548.trc
DataRate	CameraRate	NumFrames	NumMarkers	Units	OrigDataRate	OrigDataStartFrame	OrigNumFrames
30	30	9	22	m	30	411	548
Frame#	Time	Hip			RHip			RKnee			RAnkle			RBigToe			RSmallToe			RHeel			LHip			LKnee			LAnkle			LBigToe			LSmallToe			LHeel			Neck			Head			Nose			RShoulder			RElbow			RWrist			LShoulder			LElbow			LWrist		
		X1	Y1	Z1	X2	Y2	Z2	X3	Y3	Z3	X4	Y4	Z4	X5	Y5	Z5	X6	Y6	Z6	X7	Y7	Z7	X8	Y8	Z8	X9	Y9	Z9	X10	Y10	Z10	X11	Y11	Z11	X12	Y12	Z12	X13	Y13	Z13	X14	Y14	Z14	X15	Y15	Z15	X16	Y16	Z16	X17	Y17	Z17	X18	Y18	Z18	X19	Y19	Z19	X20	Y20	Z20	X21	Y21	Z21	X22	Y22	Z22
412	13.733333333333333	0.93260609749734	0.8513852893186374	0.47655399593839337	0.9204155733545186	0.8234600368198867	0.37699314719091465	0.7600917138358915	0.5083764523062932	0.3879992310203118	0.7746067882425789	0.14781753672336698	0.38500113903976896	0.5735875030942695	0.07053523795763843	0.3790690896090528	0.6318007182284843	0.06198382507607587	0.32706371506233295	0.8153561823080915	0.0739388787497302	0.3932484387067854	0.9475538401339195	0.8110269387963204	0.5668386152823094	0.989190619449942	0.45913294367124374	0.5619554694990441	1.0597430639240737	0.10357470360011041	0.5235560273718515	0.86802035136191	0.033573022772495464	0.5503023376153231	0.9256504100205443	0.027060756054556608	0.5847133772342333	1.1028216837280778	0.028169051352733447	0.5186893102267901	0.8797935074212342	1.4484675549583201	0.4980972028738071	0.7991071918062994	1.6732352833941144	0.49212857752311845	0.7127283450989633	1.5506193233633299	0.4920183830858065	0.9383421049430382	1.3659623197615396	0.3182846814243502	0.9792673645858585	1.0925793533848647	0.2681065518350845	0.9645396023900491	0.8520273560919607	0.23449368660545528	0.9036813325887904	1.3566848114887757	0.6621132364510551	0.8770675798211451	1.0864530040634377	0.7247564343156772	0.7562444212991809	0.8825520745231495	0.765337776040098
413	13.766666666666667	0.8975142800809321	0.8468932127585154	0.47655342949853663	0.8850032755076067	0.8189134147823958	0.37764558950721305	0.7242474940303684	0.4988670041050356	0.3866770406664645	0.6857870210448725	0.13723136556167814	0.3898224522137848	0.4773023966942548	0.07937147767696003	0.38795587389797875	0.5303342957087331	0.06823463342151866	0.33352699181519635	0.7179750955138031	0.057567915183972876	0.39769954715030514	0.9154012226879955	0.8061182904046617	0.5683318688820347	0.9709184233102561	0.4545831236393569	0.5587768655438009	1.0593990202655807	0.10195234264035218	0.5210738549001593	0.8650797801246053	0.03166897488594399	0.5499104122265392	0.92588444823835	0.02516961643217923	0.5826904495679037	1.1072795574884693	0.02721323989132429	0.513786167466823	0.8432441639291601	1.4441618504318858	0.4976830265008368	0.7622283937509171	1.670015657727501	0.49190663300813947	0.6757289582397628	1.5477342339021247	0.4913669487886819	0.9026291101145719	1.361445878490659	0.31851655950097185	0.9527283732112165	1.0914518253424064	0.2685392444663313	0.9466585920400868	0.8503580888451217	0.23076018112775482	0.863507333640824	1.3535774796083613	0.6623616120262513	0.8336688815513311	1.085243463550476	0.729056341668766	0.7032275157436587	0.8864271087616279	0.7664035281299013
414	13.8	0.8611768864113056	0.8417780349392288	0.47616924359194657	0.8479034379234437	0.8140678920357405	0.37757712513843616	0.689090767330786	0.48829113382685463	0.3847832512364655	0.6114223774025452	0.13038339124187082	0.3952505684160727	0.4013773020378058	0.08691716109550346	0.3975505544132359	0.44872544138289155	0.07461632162318821	0.34227927854715934	0.6375363438950427	0.04839542105671561	0.4036479729233776	0.8814709151845923	0.8009536288252733	0.5690336948513139	0.9496826032373595	0.4506166792195061	0.555064120695196	1.0581744759823053	0.10326513578280536	0.5189776452528111	0.8651137616130897	0.028060226879281697	0.5473691255645392	0.9273234949934138	0.023510709519959583	0.5806403055919936	1.1106338973570995	0.030184407276093114	0.5087054786454347	0.8059747519216731	1.4399388975015859	0.49662936880846875	0.7250401236248192	1.6665721423565225	0.49104425491609704	0.6383781549541088	1.5445318453614632	0.4909226702605757	0.8655556294557751	1.3568827237156833	0.3183087906087884	0.9238393658181048	1.0898668264114253	0.2687628010969407	0.9233125263449459	0.8475240642028727	0.22905534301314964	0.8228612920498587	1.3499315474653664	0.6619413757849065	0.7916740179055431	1.082731575105087	0.7316662945522369	0.6545654458958221	0.8878222381856422	0.7659582630239724
415	13.833333333333334	0.8233155299082818	0.8367830463613354	0.475075384447629	0.8087716100956871	0.8095772186409886	0.3765056781907526	0.6534784582141164	0.478602340076884	0.38336728785985585	0.5534490373192075	0.12573703377417814	0.40168301513696136	0.3456471763456913	0.08947849487191468	0.4074430159567044	0.38788845139909356	0.07708411250281698	0.35238955583325204	0.5764872608738323	0.044089336426440986	0.410455924300774	0.8449944489021305	0.7961828179353091	0.568495384583477	0.9234200189741973	0.4476760436485426	0.5510787832468464	1.0545545184822207	0.10856159260054206	0.5175305022444522	0.868173131974697	0.02299638488316359	0.5431297546459076	0.9296849064436733	0.022325223661459132	0.5789988163981336	1.1112118584418607	0.038580031114600434	0.504243509590495	0.7678161923272805	1.4360960363282143	0.49494483377002774	0.6881079840853517	1.6632592993177904	0.48967673899733366	0.6011688619278717	1.5411831932439315	0.49066879233531113	0.8271544353733629	1.3525508804066646	0.3174280386253271	0.8920306460593131	1.0878771164781897	0.2684896651639786	0.8946509304181133	0.8437938181117561	0.22868347538327277	0.782334456425064	1.3461769115215632	0.6607787463772675	0.7509081853658581	1.0793523377118457	0.732532220952936	0.6104688842486784	0.8868044564206018	0.7644617701577909
416	13.866666666666667	0.7837945364795931	0.8325721997694377	0.47323404696883437	0.7678670119124329	0.8059104045108658	0.374713705975274	0.6172747357059979	0.47120801732306467	0.38330873504198576	0.5116519829716921	0.12203973612061364	0.4090999448753256	0.3078038662162649	0.08533298150309017	0.41703039252290397	0.3460683075662374	0.07359417918016149	0.3626911148259792	0.5342251589951816	0.042385456902026296	0.41710275111877537	0.8054349807760658	0.7925244451470858	0.5667606003508068	0.8898441213206583	0.44556162632685814	0.5469131278978223	1.0466926246568784	0.11861067366360972	0.5169451809689185	0.8732999775151533	0.017360780442023372	0.5384737162603402	0.9319565967305808	0.02201475929344481	0.5780902072019449	1.1077269423590062	0.053608364012012896	0.5014149075831988	0.7287294438088511	1.4330113704814995	0.4925961491776715	0.6517717687674986	1.6605641346482298	0.4879307164704651	0.5642998542736201	1.5379621200023588	0.4902923556203755	0.7875901240850924	1.3488139942154196	0.3156360934187035	0.8569728657785304	1.08579041895748	0.26755868643757974	0.8610962180950444	0.8396997860891199	0.2284519671332304	0.7427083109649321	1.3429684049083241	0.6588292647271232	0.7114307760751629	1.0757621916204712	0.731624061463716	0.5712826717659982	0.8837630532342862	0.7621928438126074
417	13.9	0.7427133525022163	0.8296431770189429	0.4709520038983646	0.7258930798903238	0.803217410823457	0.372732845905168	0.5814062139870892	0.46675208324163214	0.384779315338898	0.4840870231544478	0.11880646653258119	0.4168248108265378	0.28403573002654636	0.07567798270781959	0.4255666489176421	0.31957908584247896	0.06499850425087424	0.37207134316620716	0.5078443959806482	0.04179388788842142	0.4226418710689676	0.7628330732523441	0.7903673874465349	0.5642311546951371	0.8471791156398322	0.4440593042390951	0.5431503193815281	1.03224670233755	0.13390018146118013	0.5175573675364993	0.8785892026911722	0.01251442713013704	0.5351163812904158	0.9325765326704596	0.02307180883114903	0.5780193986405956	1.0984005337589915	0.07607277411821203	0.5012355231947427	0.6889563481744143	1.4311437167198968	0.48964522418018547	0.61603935531892	1.658887676790446	0.485744487294028	0.5275008170308287	1.535366853028074	0.48944976273760654	0.7472508204993011	1.3461635102394978	0.31288983422982675	0.818635615757935	1.0840657577585195	0.2659208080393679	0.8227811031189698	0.8358823979993714	0.22741763578423513	0.7039813109674251	1.3408433801868596	0.6561459504630958	0.6734812289160019	1.0726725882585064	0.7288995847155544	0.5373049757776752	0.8792055172662465	0.7592216856422143
418	13.933333333333334	0.700507290463506	0.8283227523907276	0.468755411687161	0.6836971640109384	0.8014632015276256	0.3710843556055825	0.5472859536647287	0.46532946983947515	0.3872652079611609	0.46771818241702606	0.11594483928424179	0.4239256783198149	0.2701643539196322	0.06358814896258715	0.4324200269061908	0.3041784257304355	0.05390961407747814	0.37966174867399377	0.4933458869226026	0.041599249375649336	0.4268145311122703	0.7179340712863284	0.7897326434632727	0.5614805929299362	0.7946235963172655	0.4435148174723493	0.5410118455484856	1.008764651579899	0.15439380049021922	0.5197312716419464	0.8810669037685778	0.009715087162301869	0.5340209948620792	0.9291793929608989	0.026014847115206255	0.5786918235287423	1.0804710177429835	0.10604919619449436	0.5042719227800991	0.6489916630080454	1.4308614679733145	0.4862699605835721	0.5804100368148165	1.6584233871860934	0.48273483485343743	0.4904606943466581	1.5338818594581876	0.48797859782936404	0.7066455216225888	1.3450456040904322	0.30941470892432305	0.7772198400656339	1.0830465937224685	0.2635833194672723	0.779631267141172	0.8329539271917821	0.22507865741840816	0.6654657127058812	1.3400187471576783	0.6529734189305734	0.6373544317317954	1.0706488943307235	0.7243736481087785	0.5085819623729279	0.8736740622925449	0.7555627124331649
419	13.966666666666669	0.6579084895285614	0.8287705146756359	0.46719512527989215	0.642039960492698	0.8006497760652428	0.3701949538935527	0.5161767453290143	0.46652664193030213	0.3900506514003478	0.4592393267362515	0.11335582311354614	0.42964534059295584	0.26268590318719237	0.052102465726891485	0.43727792002133764	0.29625512083583133	0.04292303744390343	0.38494424742259054	0.48673314308332294	0.04156093773596148	0.43002679310086245	0.6719414810144002	0.7905434590217756	0.5591060188246288	0.7326230358617021	0.4447003937258917	0.541541914791975	0.9743118510987909	0.179075752373676	0.5235567855246914	0.8763962759296812	0.009872424944559664	0.5347973822626778	0.9180925623091217	0.03137018781042081	0.5798581447768338	1.0509486143994835	0.14194404467905833	0.5104731598770338	0.609348768036245	1.4322673538070076	0.48265013043023947	0.5436281138716388	1.6592158666513181	0.4784358329966183	0.4530931467986774	1.533762925178917	0.485787794578872	0.6662375188650081	1.3456102588973686	0.30561493479606694	0.7330766710392607	1.0827865223798436	0.2605944268663287	0.7316389497061758	0.8312888007249959	0.22124193349465396	0.626780942312745	1.3405103960030282	0.6497409671276405	0.6032801927469016	1.0699405288118473	0.7182382895361782	0.4848491401836203	0.8677668898624975	0.7513448918203965
420	14.0	0.6157377991311519	0.8309253084114911	0.46663206270960705	0.6014959299702844	0.8008660839529214	0.3703136663468238	0.48895758779526144	0.46933264957963194	0.3926132478408529	0.4556636166061268	0.11093832490146933	0.4335439573099629	0.259165889286087	0.04303681424044111	0.44015250828196845	0.2931747354785682	0.03366949106508786	0.3878741145223339	0.4847540576611141	0.0416186187927695	0.43282229163219005	0.6261587427698122	0.7927613076376046	0.5575451407817961	0.6630050587967862	0.4483549456556438	0.5447094493777135	0.9278666463334836	0.20556698102241838	0.5286040166179417	0.8586885889056851	0.013832993404897614	0.5363996959639177	0.8942407953403475	0.03955637599738807	0.5811614860971612	1.0080007660133323	0.1795728188184315	0.5190262959723522	0.5703743297111652	1.4351629932215806	0.47891050143313957	0.5036539426961719	1.6612867784583873	0.4724318071463476	0.4155415044268268	1.535001330212262	0.4828936212659531	0.6263299067596688	1.3476304754320758	0.30192620057196673	0.6865728263980668	1.0830590654210954	0.2571005913363362	0.6787842883018509	0.8309216916098762	0.2161826735969326	0.5885324776844031	1.3423251431603678	0.646896327678917	0.5713331489422274	1.070464126652619	0.7109426663648314	0.46554636392952653	0.8620961281824242	0.7468573245358349
